<?xml version="1.0" encoding="UTF-8"?>
<svg xmlns="http://www.w3.org/2000/svg" width="1440" height="1440" viewBox="0 0 1440 1440" fill="none">
    <!-- Основной шестиугольник -->
    <path fill-rule="evenodd" clip-rule="evenodd" d="M1134.77 317.128L788.423 147.795C745.046 126.587 694.517 126.587 651.14 147.795L304.793 317.128C261.416 338.336 229.912 378.443 219.199 426.096L133.658 806.584C122.945 854.238 134.189 904.25 164.207 942.465L403.885 1247.59C433.903 1285.81 479.429 1308.07 527.574 1308.07H911.989C960.134 1308.07 1005.66 1285.81 1035.68 1247.59L1275.36 942.465C1305.37 904.25 1316.62 854.238 1305.9 806.584L1220.36 426.096C1209.65 378.443 1178.15 338.336 1134.77 317.128ZM844.585 29.3972C765.717 -9.16232 673.846 -9.16235 594.978 29.3971L248.632 198.73C169.764 237.29 112.484 310.212 93.0048 396.854L7.46439 777.343C-12.0143 863.985 8.42885 954.917 63.007 1024.4L302.686 1329.53C357.264 1399.01 440.037 1439.48 527.574 1439.48H911.989C999.525 1439.48 1082.3 1399.01 1136.88 1329.53L1376.56 1024.4C1431.13 954.917 1451.58 863.985 1432.1 777.343L1346.56 396.854C1327.08 310.212 1269.8 237.29 1190.93 198.73L844.585 29.3972Z" fill="#000000"/>

    <!-- Минималистичная голова котенка -->
    <!-- Голова -->
    <path d="M600 500 Q 720 400 840 500 Q 720 600 600 500" fill="white"/>
    
    <!-- Уши -->
    <path d="M600 500 Q 550 400 500 450 Q 550 500 600 500" fill="white"/>
    <path d="M840 500 Q 890 400 940 450 Q 890 500 840 500" fill="white"/>
    
    <!-- Глаза -->
    <circle cx="650" cy="520" r="10" fill="black"/>
    <circle cx="790" cy="520" r="10" fill="black"/>
    
    <!-- Нос -->
    <path d="M720 540 Q 720 550 710 550 Q 700 550 700 540 Q 700 530 710 530 Q 720 530 720 540" fill="pink"/>
</svg>
