<svg xmlns="http://www.w3.org/2000/svg" viewBox="0 0 48 48"><defs><style>.cls-1{fill:#201602;}</style></defs><title>Asset 55ldpi</title><g id="Layer_2" data-name="Layer 2"><g id="layer_1-2" data-name="layer 1"><path class="cls-1" d="M37,48A11,11,0,1,1,48,37,11,11,0,0,1,37,48Zm0-20a9,9,0,1,0,9,9A9,9,0,0,0,37,28Z"/><path class="cls-1" d="M37,40c-2.21,0-4-2.24-4-5a3.71,3.71,0,0,1,4-4,3.71,3.71,0,0,1,4,4C41,37.76,39.21,40,37,40Zm0-7c-1.79,0-2,1.14-2,2,0,1.6.93,3,2,3s2-1.4,2-3C39,34.14,38.79,33,37,33Z"/><path class="cls-1" d="M44,45H42V41.69a1,1,0,0,0-.84-1L37,40l-4.17.7a1,1,0,0,0-.83,1V45H30V41.69a3,3,0,0,1,2.51-2.95L36.84,38h.32l4.33.73A3,3,0,0,1,44,41.69Z"/><path class="cls-1" d="M11,48A11,11,0,1,1,22,37,11,11,0,0,1,11,48Zm0-20a9,9,0,1,0,9,9A9,9,0,0,0,11,28Z"/><path class="cls-1" d="M11,40c-2.21,0-4-2.24-4-5a3.71,3.71,0,0,1,4-4,3.71,3.71,0,0,1,4,4C15,37.76,13.21,40,11,40Zm0-7c-1.79,0-2,1.14-2,2,0,1.6.93,3,2,3s2-1.4,2-3C13,34.14,12.79,33,11,33Z"/><path class="cls-1" d="M18,45H16V41.69a1,1,0,0,0-.84-1L11,40l-4.17.7a1,1,0,0,0-.83,1V45H4V41.69a3,3,0,0,1,2.51-2.95L10.84,38h.32l4.33.73A3,3,0,0,1,18,41.69Z"/><path class="cls-1" d="M37,22A11,11,0,1,1,48,11,11,11,0,0,1,37,22ZM37,2a9,9,0,1,0,9,9A9,9,0,0,0,37,2Z"/><path class="cls-1" d="M37,14c-2.21,0-4-2.24-4-5a3.71,3.71,0,0,1,4-4,3.71,3.71,0,0,1,4,4C41,11.76,39.21,14,37,14Zm0-7c-1.79,0-2,1.14-2,2,0,1.6.93,3,2,3s2-1.4,2-3C39,8.14,38.79,7,37,7Z"/><path class="cls-1" d="M44,19H42V15.69a1,1,0,0,0-.84-1L37,14l-4.17.7a1,1,0,0,0-.83,1V19H30V15.69a3,3,0,0,1,2.51-2.95L36.84,12h.32l4.33.73A3,3,0,0,1,44,15.69Z"/><path class="cls-1" d="M11,22A11,11,0,1,1,22,11,11,11,0,0,1,11,22ZM11,2a9,9,0,1,0,9,9A9,9,0,0,0,11,2Z"/><path class="cls-1" d="M11,14c-2.21,0-4-2.24-4-5a3.71,3.71,0,0,1,4-4,3.71,3.71,0,0,1,4,4C15,11.76,13.21,14,11,14Zm0-7C9.21,7,9,8.14,9,9c0,1.6.93,3,2,3s2-1.4,2-3C13,8.14,12.79,7,11,7Z"/><path class="cls-1" d="M18,19H16V15.69a1,1,0,0,0-.84-1L11,14l-4.17.7a1,1,0,0,0-.83,1V19H4V15.69a3,3,0,0,1,2.51-2.95L10.84,12h.32l4.33.73A3,3,0,0,1,18,15.69Z"/><rect class="cls-1" x="36" y="21" width="2" height="6"/><rect class="cls-1" x="10" y="21" width="2" height="6"/><rect class="cls-1" x="21" y="10" width="6" height="2"/><rect class="cls-1" x="21" y="36" width="6" height="2"/></g></g></svg>